<mxfile host="app.diagrams.net" modified="2023-10-20T08:23:57.717Z" agent="Mozilla/5.0 (X11; Linux x86_64; rv:109.0) Gecko/20100101 Firefox/118.0" etag="n9yTPj-BOCOJIlGnhuxz" version="22.0.5" type="github">
  <diagram name="Page-1" id="KniYVvXjkBFUdyHRl0df">
    <mxGraphModel dx="1784" dy="2022" grid="1" gridSize="10" guides="1" tooltips="1" connect="1" arrows="1" fold="1" page="1" pageScale="1" pageWidth="850" pageHeight="1100" math="0" shadow="0">
      <root>
        <mxCell id="0" />
        <mxCell id="1" parent="0" />
        <mxCell id="mzNYeFfV8IgYRgjsqz8I-3" value="" style="shape=image;verticalLabelPosition=bottom;labelBackgroundColor=none;verticalAlign=top;aspect=fixed;imageAspect=0;image=https://upload.wikimedia.org/wikipedia/commons/thumb/7/77/Uml_classes_ru.svg/1280px-Uml_classes_ru.svg.png;rounded=1;sketch=1;curveFitting=1;jiggle=2;fontFamily=Courier New;" parent="1" vertex="1">
          <mxGeometry x="-850" y="-1100" width="850" height="566.67" as="geometry" />
        </mxCell>
        <mxCell id="mzNYeFfV8IgYRgjsqz8I-4" value="&lt;div&gt;Реализация - клиент реализует поведение заданное поставщиком.&lt;/div&gt;&lt;div&gt;Отношение между интерфейсом и классом реализующим этот интерфейс.&lt;/div&gt;" style="text;strokeColor=none;fillColor=none;html=1;align=center;verticalAlign=middle;whiteSpace=wrap;rounded=1;fontSize=16;sketch=1;curveFitting=1;jiggle=2;labelBackgroundColor=none;fontFamily=Courier New;" parent="1" vertex="1">
          <mxGeometry x="-850" y="-520" width="270" height="130" as="geometry" />
        </mxCell>
        <mxCell id="mzNYeFfV8IgYRgjsqz8I-6" value="PersonGamer" style="swimlane;fontStyle=1;align=center;verticalAlign=top;childLayout=stackLayout;horizontal=1;startSize=26;horizontalStack=0;resizeParent=1;resizeParentMax=0;resizeLast=0;collapsible=1;marginBottom=0;whiteSpace=wrap;html=1;fontSize=16;rounded=1;sketch=1;curveFitting=1;jiggle=2;labelBackgroundColor=none;fontFamily=Courier New;" parent="1" vertex="1">
          <mxGeometry x="-480" y="-500" width="190" height="80" as="geometry" />
        </mxCell>
        <mxCell id="mzNYeFfV8IgYRgjsqz8I-11" value="+ setID(int)" style="text;strokeColor=none;fillColor=none;align=left;verticalAlign=top;spacingLeft=4;spacingRight=4;overflow=hidden;rotatable=0;points=[[0,0.5],[1,0.5]];portConstraint=eastwest;whiteSpace=wrap;html=1;fontSize=16;rounded=1;sketch=1;curveFitting=1;jiggle=2;labelBackgroundColor=none;fontFamily=Courier New;" parent="mzNYeFfV8IgYRgjsqz8I-6" vertex="1">
          <mxGeometry y="26" width="190" height="26" as="geometry" />
        </mxCell>
        <mxCell id="mzNYeFfV8IgYRgjsqz8I-9" value="+ setName(string)" style="text;strokeColor=none;fillColor=none;align=left;verticalAlign=top;spacingLeft=4;spacingRight=4;overflow=hidden;rotatable=0;points=[[0,0.5],[1,0.5]];portConstraint=eastwest;whiteSpace=wrap;html=1;fontSize=16;rounded=1;sketch=1;curveFitting=1;jiggle=2;labelBackgroundColor=none;fontFamily=Courier New;" parent="mzNYeFfV8IgYRgjsqz8I-6" vertex="1">
          <mxGeometry y="52" width="190" height="28" as="geometry" />
        </mxCell>
        <mxCell id="mzNYeFfV8IgYRgjsqz8I-10" value="&lt;p style=&quot;margin:0px;margin-top:4px;text-align:center;&quot;&gt;&lt;i&gt;&amp;lt;&amp;lt;Interface&amp;gt;&amp;gt;&lt;/i&gt;&lt;br&gt;&lt;b&gt;Gamer&lt;/b&gt;&lt;br&gt;&lt;/p&gt;&lt;hr size=&quot;1&quot;&gt;&lt;p style=&quot;margin:0px;margin-left:4px;&quot;&gt;+ name: String&lt;br&gt;+ id: int&lt;/p&gt;" style="verticalAlign=top;align=left;overflow=fill;fontSize=12;fontFamily=Courier New;html=1;whiteSpace=wrap;rounded=1;sketch=1;curveFitting=1;jiggle=2;labelBackgroundColor=none;" parent="1" vertex="1">
          <mxGeometry x="-220" y="-500" width="190" height="80" as="geometry" />
        </mxCell>
        <mxCell id="mzNYeFfV8IgYRgjsqz8I-14" value="" style="endArrow=block;dashed=1;endFill=0;endSize=12;html=1;rounded=1;fontSize=12;curved=1;sketch=1;curveFitting=1;jiggle=2;labelBackgroundColor=none;fontColor=default;fontFamily=Courier New;" parent="1" edge="1">
          <mxGeometry width="160" relative="1" as="geometry">
            <mxPoint x="-290" y="-460" as="sourcePoint" />
            <mxPoint x="-220" y="-460.38" as="targetPoint" />
          </mxGeometry>
        </mxCell>
        <mxCell id="AALjy2iVQTmJkf8dyK00-9" value="Classname" style="swimlane;fontStyle=1;align=center;verticalAlign=top;childLayout=stackLayout;horizontal=1;startSize=26;horizontalStack=0;resizeParent=1;resizeParentMax=0;resizeLast=0;collapsible=1;marginBottom=0;whiteSpace=wrap;html=1;sketch=1;hachureGap=4;jiggle=2;curveFitting=1;fontFamily=Courier New;fontSize=20;" vertex="1" parent="1">
          <mxGeometry x="-480" y="-370" width="160" height="86" as="geometry" />
        </mxCell>
        <mxCell id="AALjy2iVQTmJkf8dyK00-10" value="+ field: type" style="text;strokeColor=none;fillColor=none;align=left;verticalAlign=top;spacingLeft=4;spacingRight=4;overflow=hidden;rotatable=0;points=[[0,0.5],[1,0.5]];portConstraint=eastwest;whiteSpace=wrap;html=1;fontSize=20;fontFamily=Courier New;" vertex="1" parent="AALjy2iVQTmJkf8dyK00-9">
          <mxGeometry y="26" width="160" height="26" as="geometry" />
        </mxCell>
        <mxCell id="AALjy2iVQTmJkf8dyK00-11" value="" style="line;strokeWidth=1;fillColor=none;align=left;verticalAlign=middle;spacingTop=-1;spacingLeft=3;spacingRight=3;rotatable=0;labelPosition=right;points=[];portConstraint=eastwest;strokeColor=inherit;sketch=1;hachureGap=4;jiggle=2;curveFitting=1;fontFamily=Courier New;fontSize=20;" vertex="1" parent="AALjy2iVQTmJkf8dyK00-9">
          <mxGeometry y="52" width="160" height="8" as="geometry" />
        </mxCell>
        <mxCell id="AALjy2iVQTmJkf8dyK00-12" value="+ method(type): type" style="text;strokeColor=none;fillColor=none;align=left;verticalAlign=top;spacingLeft=4;spacingRight=4;overflow=hidden;rotatable=0;points=[[0,0.5],[1,0.5]];portConstraint=eastwest;whiteSpace=wrap;html=1;fontSize=20;fontFamily=Courier New;" vertex="1" parent="AALjy2iVQTmJkf8dyK00-9">
          <mxGeometry y="60" width="160" height="26" as="geometry" />
        </mxCell>
        <mxCell id="AALjy2iVQTmJkf8dyK00-13" value="Зависимость " style="text;html=1;align=center;verticalAlign=middle;resizable=0;points=[];autosize=1;strokeColor=none;fillColor=none;fontSize=20;fontFamily=Courier New;" vertex="1" parent="1">
          <mxGeometry x="-840" y="-367" width="160" height="40" as="geometry" />
        </mxCell>
        <mxCell id="AALjy2iVQTmJkf8dyK00-16" value="Композиция: Отношения между целым и частью, но целое и часть не могут быть разделены" style="text;strokeColor=none;fillColor=none;html=1;align=center;verticalAlign=middle;whiteSpace=wrap;rounded=0;fontSize=20;fontFamily=Courier New;" vertex="1" parent="1">
          <mxGeometry x="-850" y="-240" width="300" height="120" as="geometry" />
        </mxCell>
      </root>
    </mxGraphModel>
  </diagram>
</mxfile>
